<svg width="1024" height="1024" viewBox="0 0 1024 1024" fill="none" xmlns="http://www.w3.org/2000/svg">
<path fill-rule="evenodd" clip-rule="evenodd" d="M792.304 232.751V836.733L742.463 886.573H272.408L222.284 836.449L222 836.732V600.72L691.136 131.583L792.304 232.751ZM364.576 659.776V712.749L395.824 743.997H649.728V442.197L615.941 408.41L364.576 659.776Z" fill="#232628"/>
<path d="M222 485.969V217.724L321.724 118H589.969L222 485.969Z" fill="#232628"/>
<path d="M595.152 612.392L683.756 497.535V855.234L595.152 970.092V612.392Z" fill="#FF007B"/>
<path d="M829 442.415L765.474 360.066V616.525L829 698.874V442.415Z" fill="#F0F4F6"/>
<path d="M712 535.792H833.208L849.811 569H712V535.792Z" fill="#232628"/>
<path d="M741 481H862.208L878.811 514.208H741V481Z" fill="#232628"/>
</svg>
